<?xml version="1.0" encoding="UTF-8"?> <svg xmlns="http://www.w3.org/2000/svg" width="86" height="95" viewBox="0 0 86 95" fill="none"><path fill-rule="evenodd" clip-rule="evenodd" d="M7.19872 0.0351619C23.8377 1.74485 62.3648 9.66883 84.0306 44.0694C85.391 46.2293 85.3855 48.9879 84.0166 51.1426C62.2915 85.3295 23.7948 93.2466 7.19737 94.9643C4.0963 95.2855 1.45485 93.4072 0.441972 90.6685C9.87592 90.6137 27.8766 88.7875 48.2116 78.2497L48.2306 78.2402L48.2491 78.2298C49.3991 77.5987 50.5305 76.9459 51.6402 76.2755C54.4793 74.5601 57.181 72.7284 59.7048 70.8546C62.6416 68.6737 65.3414 66.4321 67.7413 64.2449C70.3348 61.8812 72.5859 59.5741 74.4108 57.466C76.0326 55.5931 77.3417 53.851 78.2569 52.3464C78.7143 51.5945 79.0911 50.873 79.3585 50.2016C79.6168 49.5529 79.8181 48.8395 79.8181 48.137C79.8181 47.2783 79.5476 46.3609 79.1816 45.4865C78.8025 44.582 78.2605 43.5812 77.5851 42.5156C76.2334 40.3826 74.2755 37.8778 71.7992 35.2003C66.8443 29.8417 59.7161 23.6859 50.9553 18.3265C33.44 7.61113 9.57871 5.16022 0.201755 5.12521C0.965374 1.9672 3.80767 -0.313265 7.19872 0.0351619ZM0 8.74389V14.9464C9.33488 14.9467 30.0096 18.1102 46.6219 27.8927C61.4704 36.6363 69.0487 47.4349 73.1563 53.3077C73.9874 52.2523 74.66 51.2959 75.1649 50.4658C75.5539 49.8261 75.8258 49.2905 75.9959 48.863C76.1746 48.4138 76.1991 48.1881 76.1991 48.137C76.1991 47.9773 76.1334 47.5774 75.843 46.8843C75.5657 46.2216 75.1319 45.405 74.5284 44.4531C73.3232 42.5512 71.5119 40.2201 69.1424 37.6574C64.4064 32.5358 57.5352 26.5943 49.067 21.4136C32.2529 11.1275 8.95669 8.74417 0 8.74389ZM0 18.5654V24.2888C9.348 24.289 25.009 26.2608 42.1053 36.7739C56.6259 45.7031 62.7149 54.3911 66.2684 59.4614C66.4457 59.7143 66.6167 59.9586 66.7818 60.1929C68.2475 58.7964 69.5712 57.4402 70.7338 56.1581C70.5714 55.9274 70.404 55.6881 70.2312 55.4411L70.2303 55.4397C66.1408 49.6018 58.9701 39.364 44.7857 31.0113C28.856 21.6309 8.85355 18.5658 0 18.5654ZM0 27.9078V33.6312C9.40771 33.6316 26.5615 37.3839 39.3309 46.4202C50.3256 54.2002 56.3694 62.2743 59.1497 66.7343C60.9013 65.3795 62.5539 64.0101 64.0915 62.6561C63.84 62.3033 63.579 61.9314 63.3048 61.5415C59.7514 56.4807 54.0577 48.3726 40.2094 39.8567C23.8065 29.7698 8.83952 27.9081 0 27.9078ZM0 37.2503V43.9319C6.10307 43.932 12.35 44.7386 19.0068 46.9942C22.543 48.1926 26.8782 50.1419 29.849 51.8347C32.8818 53.5628 36.2366 55.6107 38.9889 58.0251C42.1927 60.7403 44.4138 63.1655 46.5826 65.6251C49.086 68.4638 50.383 70.5832 51.3299 72.214C53.0231 71.1455 54.6621 70.0367 56.2373 68.9058C53.7469 64.8484 47.9985 56.9873 37.2404 49.3742C25.1741 40.8357 8.77981 37.2507 0 37.2503ZM0 47.5507V50.6391C4.44871 50.6391 8.80605 49.8126 12.2849 48.8599C8.08179 47.9203 4.02076 47.5511 0 47.5507ZM0 54.2581V59.0235C8.0076 59.0235 12.1378 57.8898 15.4958 56.9683H15.4963C15.8451 56.8724 16.1857 56.7788 16.5214 56.6892C18.1993 56.2414 20.8041 55.2864 23.1673 54.2948C23.8568 54.0052 24.5159 53.7171 25.1148 53.442C22.9904 52.412 20.601 51.3955 18.4703 50.6386C14.696 52.1066 7.52491 54.2581 0 54.2581ZM0 62.6426V68.8451C8.85174 68.8447 14.3861 67.6947 22.8344 64.6407C28.8121 62.4797 32.5868 60.5602 34.7605 59.2565C32.9763 57.9165 30.9953 56.682 29.0184 55.532C28.6606 55.737 28.2725 55.9383 27.8897 56.1283C26.9474 56.5978 25.788 57.1199 24.5679 57.6315C22.1445 58.6489 19.3655 59.6754 17.4556 60.1857C17.1267 60.2734 16.7901 60.3657 16.4436 60.4607L16.4404 60.4616C12.9838 61.4098 8.49029 62.6426 0 62.6426ZM0 72.4642V77.7082C8.88386 77.7082 17.0529 76.3755 26.4299 73.0229C34.0462 70.3 39.434 67.9576 42.4039 66.3806C40.997 64.8361 39.5146 63.3107 37.691 61.6903C35.4427 63.1655 31.1944 65.4672 24.0648 68.0444C15.2846 71.2183 9.33307 72.4637 0 72.4642ZM0 81.3272V87.0508C8.87888 87.0503 26.5145 85.4122 46.5274 75.0464C47.0996 74.7324 47.6674 74.4126 48.2301 74.0869C47.448 72.7379 46.5247 71.2061 44.8481 69.1677C41.6932 70.941 35.8041 73.5146 27.6482 76.4307C17.8826 79.9221 9.30186 81.3272 0 81.3272Z" fill="url(#paint0_linear_862_12070)"></path><defs><linearGradient id="paint0_linear_862_12070" x1="86.2129" y1="47.5027" x2="0.0009044" y2="47.5027" gradientUnits="userSpaceOnUse"><stop stop-color="#43D6BA"></stop><stop offset="0.5" stop-color="#52C9E5"></stop><stop offset="1" stop-color="#007FA7"></stop></linearGradient></defs></svg> 